<svg width="14" height="14" viewBox="0 0 14 14" fill="none" xmlns="http://www.w3.org/2000/svg">
<path d="M0.491334 8.44493C0.559481 8.37665 0.644935 8.32821 0.738527 8.30481C0.832121 8.28141 0.93032 8.28394 1.02258 8.31212C2.03556 8.61836 3.11265 8.64404 4.13907 8.38642C5.16549 8.1288 6.10279 7.59753 6.85109 6.84923C7.5994 6.10093 8.13066 5.16363 8.38828 4.1372C8.64591 3.11078 8.62023 2.0337 8.31399 1.02072C8.28557 0.928413 8.28285 0.830108 8.30612 0.736374C8.32939 0.642639 8.37777 0.557022 8.44606 0.488729C8.51436 0.420437 8.59998 0.372053 8.69371 0.348782C8.78744 0.325511 8.88575 0.328233 8.97805 0.356654C10.3785 0.785668 11.608 1.64546 12.4916 2.81369C13.2643 3.83957 13.7356 5.06059 13.8526 6.33957C13.9696 7.61856 13.7277 8.90483 13.1539 10.0539C12.5802 11.2029 11.6974 12.1692 10.6048 12.8442C9.51214 13.5192 8.25292 13.8762 6.9686 13.875C5.47024 13.8796 4.01175 13.3925 2.81688 12.4884C1.64866 11.6049 0.788863 10.3753 0.359849 8.97486C0.331757 8.8829 0.329149 8.78504 0.352305 8.69171C0.375462 8.59839 0.423512 8.5131 0.491334 8.44493ZM3.45571 11.6397C4.58093 12.4873 5.97444 12.8998 7.37969 12.8014C8.78494 12.703 10.1074 12.1003 11.1035 11.1042C12.0996 10.1082 12.7024 8.78582 12.8009 7.38057C12.8995 5.97533 12.487 4.58179 11.6396 3.4565C11.0875 2.7274 10.3737 2.13637 9.55446 1.72994C9.60113 2.05747 9.62465 2.38788 9.62485 2.71872C9.62292 4.54978 8.89467 6.30529 7.59992 7.60004C6.30517 8.8948 4.54966 9.62304 2.7186 9.62498C2.38709 9.62487 2.05601 9.60135 1.72782 9.55458C2.13464 10.374 2.72613 11.0878 3.45571 11.6397Z" fill="#155DA4"/>
</svg>
