<svg width="14" height="14" viewBox="0 0 14 14" fill="none" xmlns="http://www.w3.org/2000/svg">
<path d="M6.99967 10.7917C9.09375 10.7917 10.7913 9.09412 10.7913 7.00004C10.7913 4.90596 9.09375 3.20837 6.99967 3.20837C4.90559 3.20837 3.20801 4.90596 3.20801 7.00004C3.20801 9.09412 4.90559 10.7917 6.99967 10.7917Z" stroke="#155DA4" stroke-linecap="round" stroke-linejoin="round"/>
<path d="M11.1653 11.165L11.0895 11.0891M11.0895 2.91079L11.1653 2.83496L11.0895 2.91079ZM2.83533 11.165L2.91116 11.0891L2.83533 11.165ZM7.00033 1.21329V1.16663V1.21329ZM7.00033 12.8333V12.7866V12.8333ZM1.21366 6.99996H1.16699H1.21366ZM12.8337 6.99996H12.787H12.8337ZM2.91116 2.91079L2.83533 2.83496L2.91116 2.91079Z" stroke="#155DA4" stroke-linecap="round" stroke-linejoin="round"/>
</svg>
