<svg width="17" height="17" viewBox="0 0 17 17" fill="none" xmlns="http://www.w3.org/2000/svg">
<path d="M1.49146 9.44481C1.5596 9.37652 1.64506 9.32808 1.73865 9.30468C1.83224 9.28129 1.93044 9.28382 2.02271 9.312C3.03569 9.61824 4.11277 9.64392 5.13919 9.38629C6.16562 9.12867 7.10292 8.59741 7.85122 7.84911C8.59952 7.1008 9.13078 6.1635 9.38841 5.13708C9.64603 4.11066 9.62035 3.03357 9.31411 2.02059C9.28569 1.92829 9.28297 1.82999 9.30624 1.73625C9.32951 1.64252 9.37789 1.5569 9.44619 1.48861C9.51448 1.42031 9.6001 1.37193 9.69383 1.34866C9.78757 1.32539 9.88587 1.32811 9.97817 1.35653C11.3787 1.78555 12.6082 2.64534 13.4917 3.81356C14.2644 4.83944 14.7357 6.06047 14.8527 7.33945C14.9697 8.61844 14.7278 9.90471 14.1541 11.0538C13.5803 12.2028 12.6975 13.1691 11.6049 13.8441C10.5123 14.5191 9.25305 14.8761 7.96872 14.8749C6.47037 14.8795 5.01188 14.3924 3.817 13.4883C2.64878 12.6047 1.78899 11.3752 1.35997 9.97474C1.33188 9.88278 1.32927 9.78492 1.35243 9.69159C1.37558 9.59826 1.42363 9.51297 1.49146 9.44481ZM4.45583 12.6396C5.58106 13.4871 6.97456 13.8997 8.37981 13.8013C9.78506 13.7029 11.1075 13.1002 12.1036 12.1041C13.0998 11.1081 13.7026 9.78569 13.8011 8.38045C13.8996 6.9752 13.4872 5.58167 12.6397 4.45638C12.0876 3.72728 11.3739 3.13625 10.5546 2.72981C10.6013 3.05735 10.6248 3.38776 10.625 3.7186C10.623 5.54966 9.8948 7.30517 8.60004 8.59992C7.30529 9.89468 5.54978 10.6229 3.71872 10.6249C3.38722 10.6247 3.05613 10.6012 2.72794 10.5545C3.13476 11.3739 3.72625 12.0877 4.45583 12.6396Z" fill="#155DA4"/>
</svg>
