<svg width="14" height="14" viewBox="0 0 14 14" fill="none" xmlns="http://www.w3.org/2000/svg">
<path d="M6.99992 10.7916C9.094 10.7916 10.7916 9.09406 10.7916 6.99998C10.7916 4.9059 9.094 3.20831 6.99992 3.20831C4.90584 3.20831 3.20825 4.9059 3.20825 6.99998C3.20825 9.09406 4.90584 10.7916 6.99992 10.7916Z" stroke="#155DA4" stroke-linecap="round" stroke-linejoin="round"/>
<path d="M11.1651 11.165L11.0892 11.0892M11.0892 2.91085L11.1651 2.83502L11.0892 2.91085ZM2.83508 11.165L2.91091 11.0892L2.83508 11.165ZM7.00008 1.21335V1.16669V1.21335ZM7.00008 12.8334V12.7867V12.8334ZM1.21341 7.00002H1.16675H1.21341ZM12.8334 7.00002H12.7867H12.8334ZM2.91091 2.91085L2.83508 2.83502L2.91091 2.91085Z" stroke="#155DA4" stroke-linecap="round" stroke-linejoin="round"/>
</svg>
